<svg xmlns="http://www.w3.org/2000/svg" width="400" height="400" preserveAspectRatio="none" style="display: block;" version="1.1" viewBox="0 0 1600 1600"><defs><linearGradient id="c" x1="276.386" x2="339.282" y1="795.361" y2="800.61" gradientUnits="userSpaceOnUse"><stop class="stop0" offset="0" stop-color="rgb(94,98,151)" stop-opacity="1"/><stop class="stop1" offset="1" stop-color="rgb(54,49,172)" stop-opacity="1"/></linearGradient><linearGradient id="b" x1="721.68" x2="807.926" y1="814.883" y2="847.188" gradientUnits="userSpaceOnUse"><stop class="stop0" offset="0" stop-color="rgb(41,45,142)" stop-opacity="1"/><stop class="stop1" offset="1" stop-color="rgb(91,106,202)" stop-opacity="1"/></linearGradient><linearGradient id="a" x1="442.797" x2="387.406" y1="850.474" y2="844.607" gradientUnits="userSpaceOnUse"><stop class="stop0" offset="0" stop-color="rgb(77,77,196)" stop-opacity="1"/><stop class="stop1" offset="1" stop-color="rgb(116,116,217)" stop-opacity="1"/></linearGradient></defs><path fill="rgb(254,254,254)" d="M0 0h1600v1600h-1600z"/><path fill="rgb(254,254,254)" d="m1502.99 990.854 97.01.214v608.932h-1600v-608.429c55.34-1.459 117.587-.445 173.248-.336l256.576-.006 664.636-.045c135.32.044 273.49 1.346 408.53-.33"/><path fill="rgb(2,3,214)" d="M1503.58 609.572c27.51 1.098 67.52-.609 96.42-.728v382.224l-97.01-.214c-135.04 1.676-273.21.374-408.53.33l-664.636.045-256.576.006c-55.661-.109-117.907-1.123-173.248.336v-382.386l289.468-.263c25.596-.015 52.024 1.292 77.093 1.035 85.032-3.031 178.606-1.031 264.456-1.029l467.483-.026 274.83.008 83.96-.074c11.06-.007 36.01-.43 46.29.736"/><path fill="rgb(254,7,9)" d="m0 609.185 289.468-.263c25.596-.015 52.024 1.292 77.093 1.035 1.392 5.039 2.228 6.57 4.567 11.187-12.405 12.507-28.348 23.532-41.579 35.36-13.204 11.805-25.459 25.052-37.671 37.905-2.747 2.89-15.637 15.848-17.024 17.792-16.863 13.038-35.112 32.89-50.921 48.018-10.425 9.976-25.674 24.061-34.865 34.525-55.699 55.4-111.342 113.057-169.81 165.724-4.962 4.47-12.714 7.922-19.258 9.338zm1503.58.387c27.51 1.098 67.52-.609 96.42-.728v382.224l-97.01-.214c1.47-46.333.57-93.076.65-139.355z"/><path fill="rgb(254,254,254)" d="M606.047 754.84c5.524-.99 14.703.321 20.647.414 37.338.584 66.438-.147 89.682 32.616 8.423 17.739 7.673 46.701 5.342 66.151l-6.362 8.411c-17.283 19.725-30.983 28.316-57.716 29.414-15.552.638-34.803 1.481-50.324 1.007-7.9 2.041-20.559.773-28.927.137-1.135-4.221-1.437-10.932-1.885-15.512-1.573-16.104-6.858-25.193-16.71-37.693 6.45-6.646 11.1-13.247 16.218-20.849 2.73-14.399 2.206-24.172 2.026-38.685-.148-2.27-1.056-5.943-1.551-8.269 5.194.711 6.002 1.563 9.659 4.987l1.861-1.827 1.521.235c1.524 3.009.129 3.215.255 7.649l1.614.367c-.009-2.032-.27-1.416.509-3.107 6.054 5.782-.543 5.373 3.461 13.638 2.888 1.921 1.371 1.593 4.654 1.227 7.124-6.244 4.69-27.662 6.026-40.311"/><path fill="rgb(43,45,163)" d="M606.047 754.84c1.487 7.286.511 28.017.343 36.596q-.49 25.184-.59 50.372c-.078 17.455 1.598 34.895 1.516 51.045-7.9 2.041-20.559.773-28.927.137-1.135-4.221-1.437-10.932-1.885-15.512-1.573-16.104-6.858-25.193-16.71-37.693 6.45-6.646 11.1-13.247 16.218-20.849 2.73-14.399 2.206-24.172 2.026-38.685-.148-2.27-1.056-5.943-1.551-8.269 5.194.711 6.002 1.563 9.659 4.987l1.861-1.827 1.521.235c1.524 3.009.129 3.215.255 7.649l1.614.367c-.009-2.032-.27-1.416.509-3.107 6.054 5.782-.543 5.373 3.461 13.638 2.888 1.921 1.371 1.593 4.654 1.227 7.124-6.244 4.69-27.662 6.026-40.311"/><path fill="rgb(153,154,247)" d="M578.038 780.251c8.992-.421 9.156 2.626 14.874 9.717.81 17.867-.667 19.91-16.9 28.968 2.73-14.399 2.206-24.172 2.026-38.685"/><path fill="rgb(43,45,163)" d="M644.877 787.351q10.32-.055 20.64-.247c18.401 23.001 20.953 42.999 4.985 67.878-1.986 2.544-4.276 4.921-6.467 7.302-7.418.113-12.632-.353-19.885-1.576-1.382-19.775-1.323-53.216.727-73.357"/><path fill="rgb(254,254,254)" d="M350.78 754.487c13.774 1.032 92.306-2.589 96.798 1.059.204 2.054.359 3.138.271 5.215l.893 8.297c.129-5.169.011-7.693 1.353-12.703 13.009-2.006 8.371 4.414 10.433 6.461 1.213-5.535.29-5.197 3.715-8.844 1.093 9.885-.105 33.667-.197 44.627a3762 3762 0 0 0 .19 92.486l-1.555-2.278c-5.483 1.829-8.454 1.19-13.816 4.409-14.513-1.799-55.045-.36-71.9-.282-9.733-.878-21.089-.698-31.015-.775.301-10.336-.115-21.051-.353-31.419-.108-29.4 1.136-52.101 2.522-81.193.996-6.429.635-20.42 2.661-25.06"/><path fill="rgb(43,45,163)" d="m447.849 760.761.893 8.297c.129-5.169.011-7.693 1.353-12.703 13.009-2.006 8.371 4.414 10.433 6.461 1.213-5.535.29-5.197 3.715-8.844 1.093 9.885-.105 33.667-.197 44.627a3762 3762 0 0 0 .19 92.486l-1.555-2.278c-5.483 1.829-8.454 1.19-13.816 4.409-1.738-8.282.334-26.7-1.748-29.67-2.192-11.817-11.429-18.899-13.724-30.639-1.709-8.738 2.522-18.341-1.488-26.963-6.253-5.151-38.528-8.659-44.999-4.994-.583-5.383-.472-10.003-.437-15.402 19.542-1.224 40.792-.72 60.472-.605.051-8.055-.097-16.199.908-24.182"/><path fill="url(#a)" d="M386.906 800.95c6.471-3.665 38.746-.157 44.999 4.994 4.01 8.622-.221 18.225 1.488 26.963 2.295 11.74 11.532 18.822 13.724 30.639-18.232-1.211-41.69-.991-60.48-1.507-.601-10.716-.233-17.339.359-28.094 14.185-1.023 30.877-1.062 45.224-1.441.123-6.351-.067-13.143-.131-19.529-15.34-1.452-29.218-1.054-44.629-.793-.347-3.305-.404-7.815-.554-11.232"/><path fill="rgb(254,254,254)" d="M749.297 766.667c34.113-20.49 58.796-15.845 90.314 6.32 3.475 2.176 5.157 3.479 8.321 6.103-.538 6.474-3.594 4.498-3.863 10.726l1.838 4.416-1.471 2.991-.734.177c-3.634.898-6.193 2.897-9.598 3.269l-2.362 2.691c12.961 11.395.105 14.9 10.741 21.868 10.706 7.014 13.033 42.397-.137 44.868-23.076 26.574-56.47 30.092-88.224 17.189-6.925-4.422-12.271-8.108-18.904-12.936a362 362 0 0 0-1.328-20.644l-.914.001c-3.097-3.128-2.412-4.271-5.05-8.183l-1.513-.34c-3.135 7.983.886 14.441-8.745 16.118-.98.17-1.4.572-2.312 1.131l6.362-8.411c2.331-19.45 3.081-48.412-5.342-66.151 8.701 6.069 3.255 6.336 8.586 13.485-.04 2.329-.474 3.776.473 5.529 1.934-.906 2.605-1.814 4.077-3.322.024-2.679.335-1.999-.566-4.297.977-2.381 1.117-3.036 2.842-5.048l.67.272-1.014-2.699 1.059 2.483-.884-2.631.343-.227.759 2.828 1.954.752c1.228-18.142 3.138-15.171 13.698-27.26z"/><path fill="url(#b)" d="M716.376 787.87c8.701 6.069 3.255 6.336 8.586 13.485-.04 2.329-.474 3.776.473 5.529 1.934-.906 2.605-1.814 4.077-3.322.024-2.679.335-1.999-.566-4.297.977-2.381 1.117-3.036 2.842-5.048l.67.272-1.014-2.699 1.059 2.483-.884-2.631.343-.227.759 2.828 1.954.752c-.003 16.369.625 27.136 17.701 35.137 19.961 9.353 39.57 12.29 57.604 25.992-6.461 3.732-20.401 10.373-27.643 7.02-14.052-6.505-15.577-19.122-34.459-15.104-3.429.73-10.232.286-13.096 2.542l-.892 3.123-.914.001c-3.097-3.128-2.412-4.271-5.05-8.183l-1.513-.34c-3.135 7.983.886 14.441-8.745 16.118-.98.17-1.4.572-2.312 1.131l6.362-8.411c2.331-19.45 3.081-48.412-5.342-66.151"/><path fill="rgb(43,45,163)" d="M839.611 772.987c3.475 2.176 5.157 3.479 8.321 6.103-.538 6.474-3.594 4.498-3.863 10.726l1.838 4.416-1.471 2.991-.734.177c-3.634.898-6.193 2.897-9.598 3.269l-2.362 2.691c12.961 11.395.105 14.9 10.741 21.868 10.706 7.014 13.033 42.397-.137 44.868l.303-.575.492-.965c14.283-27.346 1.407-45.905-24.662-57.178-.219-7.138.556-5.223 2.836-11.221 7.593-.636 9.479-1.037 16.691-3.398 2.205-9.544 1.158-14.343 1.605-23.772"/><path fill="rgb(38,46,97)" d="M818.479 811.378c-6.879-2.322-42.568-15.131-43.706-20.394 3.249-3.212 6.491-3.519 10.532-4.924 12.62-4.387 14.414 6.672 23.137 12.032 1.975 1.214 10.075 1.794 12.873 2.065-2.28 5.998-3.055 4.083-2.836 11.221"/><path fill="rgb(254,254,254)" d="m464.243 753.972 1.149.131c36.568 3.947 81.673-8.123 111.095 17.879.495 2.326 1.403 5.999 1.551 8.269.18 14.513.704 24.286-2.026 38.685-5.118 7.602-9.768 14.203-16.218 20.849 9.852 12.5 15.137 21.589 16.71 37.693.448 4.58.75 11.291 1.885 15.512-10.87-.538-27.433.858-36.986-3.587-7.036-3.274-8.845-9.984-11.152-16.779-1.919-.547-2.241-.819-4.194-.643l-2.018-1.534c.9-.663 1.572-1.071 2.183-2.024l-.155-3.047-1.181-.432-1.611 1.333c-4.829-4.596-2.353-9.046-6.757-13.869l-2.095.127c1.108 2.526 1.707 4.098 3.271 6.424.281 9.147-3.605 26.453-10.636 32.798-13.055.21-30.163.881-42.911.338l.089-1.01a3762 3762 0 0 1-.19-92.486c.092-10.96 1.29-34.742.197-44.627"/><path fill="rgb(33,10,146)" d="M507.058 891.757c-.569-8.775 1.456-47.269 10.456-49.656 5.078 2.601 10.579 23.911 12.737 30.523-1.919-.547-2.241-.819-4.194-.643l-2.018-1.534c.9-.663 1.572-1.071 2.183-2.024l-.155-3.047-1.181-.432-1.611 1.333c-4.829-4.596-2.353-9.046-6.757-13.869l-2.095.127c1.108 2.526 1.707 4.098 3.271 6.424.281 9.147-3.605 26.453-10.636 32.798"/><path fill="rgb(77,83,130)" d="M510.96 785.227c11.279-.835 18.185-.783 29.326 1.068-.437 7.661-1.782 20.806-5.677 27.202-13.706 2.459-32.719 2.697-28.428-16.192 1.364-6.005-.65-7.6 4.779-12.078"/><path fill="rgb(254,254,254)" d="M238.965 752.988c7.982.831 14.024.948 21.974 1.052 15.443.267 63.224 2.417 75.32.784 2.806-.721 12.476-1.388 14.521-.337-2.026 4.64-1.665 18.631-2.661 25.06-1.386 29.092-2.63 51.793-2.522 81.193-4.948-6.639 1.962-70.037-1.221-73.804-2.588 1.616-7.443 16.334-9.64 17-18.63 5.64-7.42 13.719-14.777 23.276-.546 3.062-.363 8.212-.36 11.486-14.427 1.047-27.796 1.904-42.318 2.57-2.2 14.211-2.409 36.354-4.176 52.253-11.118-1.143-24.471-1.148-35.64-1.237-1.146-25.757-2.283-47.173-2.369-73.252.595-20.603.615-46.08 3.869-66.044"/><path fill="url(#c)" d="M338.349 782.867c2.373 1.279 2.647 1.2 5.22 1.691 3.576-1.845 2.373-.963 4.55-5.011-1.386 29.092-2.63 51.793-2.522 81.193-4.948-6.639 1.962-70.037-1.221-73.804-2.588 1.616-7.443 16.334-9.64 17-18.63 5.64-7.42 13.719-14.777 23.276.058-4.542.377-7.318-.907-11.706-4.087-1.245-35.388-3.593-42.285-4.304-.923-8.959-1.473-16.028-1.773-25.059 19.609-2.098 46.593.275 62.338-1.653z"/><path fill="rgb(43,45,163)" d="M336.259 754.824c2.806-.721 12.476-1.388 14.521-.337-2.026 4.64-1.665 18.631-2.661 25.06-2.177 4.048-.974 3.166-4.55 5.011-2.573-.491-2.847-.412-5.22-1.691-.414-6.589.893-24.163.353-27.15z"/><path fill="rgb(33,10,146)" d="M189.068 794.744c9.191-10.464 24.44-24.549 34.865-34.525 15.809-15.128 34.058-34.98 50.921-48.018-3.308 8.606-16.598 16.814-22.872 23.301-1.869 1.932-4.1 12.174-5.445 14.954 6.498.353 9.487-.337 14.402 3.584-7.95-.104-13.992-.221-21.974-1.052-3.254 19.964-3.274 45.441-3.869 66.044-1.46-5.655-1.564-13.708-2.591-20.348-1.17 3.302 1.02 8.251-.967 12.746-1.079-3.593-1.852-18.394.073-21.094l.583 4.219.722.266c1.682-5.06 1.27-20.762-3.971-23.053-17.827-7.795-21.177 21.273-39.877 22.976m539.878 4.521c-1.586-13.427-1.584-29.933 14.649-30.693 1.649-.077 2.947-1.686 4.301-2.821l1.401.916-.924 1.068c-10.56 12.089-12.47 9.118-13.698 27.26l-1.954-.752-.759-2.828-.343.227.884 2.631-1.059-2.483 1.014 2.699-.67-.272c-1.725 2.012-1.865 2.667-2.842 5.048"/><path fill="rgb(254,254,254)" d="M928.91 753.417c11.335 2.279 34.417 3.116 46.171 2.294-2.065 34.573-.406 70.22-.039 104.84 6.236-.496 11.27-.639 17.535-.681l32.563 1.306c-.09 6.822.45 25.544-.15 30.82-1.51.973-1.02.922-2.66 1.213-11.98-1.627-29.66-.452-42.203-.578-16.903-.169-34.16-.617-51.017-.368-7.07 1.196-10.893-1.265-18.478-.276-3.449 1.506-7.911.414-12.14-.011-9.981-.28-22.933.614-33.145 1.071.207-5.426-.15-11.531-.349-17.016-5.985-7.56-.998-31.014-3.836-40.863-1.185-4.115-13.304-5.32-7.666-13.616 2.151.729 3.852 3.155 5.854 5.09-.062-1.604-.248-2.949.601-4.379 5.273-8.877 1.568-38.222 4.855-51.867.057-5.283.148-10.106.468-15.382l1.273-.618c6.042.092 41.239-.171 44.151 1.442 4.932.909 14.058.587 18.212-2.421"/><path fill="rgb(254,254,254)" d="M864.806 770.396c.057-5.283.148-10.106.468-15.382l1.273-.618c6.042.092 41.239-.171 44.151 1.442.024 41.048 1.31 82.019-.115 123.088-.139 4.014-.296 9.083.049 13.061-3.449 1.506-7.911.414-12.14-.011-9.981-.28-22.933.614-33.145 1.071.207-5.426-.15-11.531-.349-17.016-5.985-7.56-.998-31.014-3.836-40.863-1.185-4.115-13.304-5.32-7.666-13.616 2.151.729 3.852 3.155 5.854 5.09-.062-1.604-.248-2.949.601-4.379 5.273-8.877 1.568-38.222 4.855-51.867"/><path fill="rgb(153,154,247)" d="M866.547 754.396c6.042.092 41.239-.171 44.151 1.442.024 41.048 1.31 82.019-.115 123.088-.139 4.014-.296 9.083.049 13.061-3.449 1.506-7.911.414-12.14-.011 8.224-11.442 4.358-105.867 3.747-126.063a504 504 0 0 0-11.992-9.379c-6.935-.081-17.158-.381-23.7-2.138"/><path fill="rgb(43,45,163)" d="M864.998 876.031c-5.985-7.56-.998-31.014-3.836-40.863-1.185-4.115-13.304-5.32-7.666-13.616 2.151.729 3.852 3.155 5.854 5.09-.062-1.604-.248-2.949.601-4.379 5.273-8.877 1.568-38.222 4.855-51.867-.256 30.155-1.282 60.166-.143 90.33.188 4.984.365 10.331.335 15.305m45.7-120.193c4.932.909 14.058.587 18.212-2.421 1.646 15.997.663 48.23.392 65.587-.349 22.354 1.175 51.947-.192 73.259-7.07 1.196-10.893-1.265-18.478-.276-.345-3.978-.188-9.047-.049-13.061 1.425-41.069.139-82.04.115-123.088"/><path fill="rgb(254,254,254)" d="M1215.17 754.043c11.27.938 40.44.801 53.2 1.077 4.06-.225 8.47-.347 12.46-.937-1.14 16.321 1.48 38.007 5.6 53.852 7.13-12.261 23.24-38.97 32.68-49.684 7.69-2.417 31.51-4.668 39.1-2.402l1.28 1.518c-2.37 3.862-5.59 4.615-10.07 6.632-6.05 14.009-15.94 25.69-21.7 38.499-4.95 11.035 18.03 46.245 22.78 57.976 3.38 8.36 14.72 15.968 10.7 28.122-.41 1.375-2.27 3.427-3.79 3.727-6.61.405-36.36-.423-40.77-2.637-.99-2.859-1.28-3.972-1.86-6.945-.84 2.412-1.64 6.415-4.09 7.117-8.87 2.54-22.37 2.388-31.45 3.041l-31.87-.02c-11.01-.047-20.33.757-31.51.08 1.11-24.392 1.56-49.455 1.51-73.877-.03-14.28.87-51.995-2.2-65.139"/><path fill="rgb(93,93,200)" d="M1215.17 754.043c11.27.938 40.44.801 53.2 1.077-7.04 1.194-14.23.833-21.38.736-.48 45.707-.35 91.419.38 137.123-11.01-.047-20.33.757-31.51.08 1.11-24.392 1.56-49.455 1.51-73.877-.03-14.28.87-51.995-2.2-65.139"/><path fill="rgb(43,45,163)" d="M1279.24 892.999c-.14-6.93 2.4-35.062 4.86-41.386 4.88-2.965 12.6-.947 18.28-.062 4.38 9.211 10.77 21.473 12.4 31.29-.84 2.412-1.64 6.415-4.09 7.117-8.87 2.54-22.37 2.388-31.45 3.041"/><path fill="rgb(254,254,254)" d="M1215.17 754.043c3.07 13.144 2.17 50.859 2.2 65.139.05 24.422-.4 49.485-1.51 73.877l-27.35.014c-5.37-10.538-11.3-18.918-18.28-28.342-6.55-2.097-5.34-7.478-12.28-11.275l-1.24.321c-1.58 17.821-16.71 4.953-16.3 23.193l.09-.786c.82 4.018 1.5 3.809.12 6.753l-3.43 1.236c-.09 4.098.58 5.048-1.46 8.074-6.9 2.774-20.87.444-30.37.677-.36-2.596-.78-4.994-.79-7.621-1.47 1.742-1.44 3.083-1.82 5.335-4.49 3.639-8.41-.182-13.37-1.284.05.011-5.04 3.46-5.61 3.689-.57-4.314-.53-8.744-.54-13.098-.13-38.327-1.32-76.794.08-115.093.12-3.296.75-6.416 2.27-9.363 2.18 4.243-.66 7.21-.84 13.125l1.04.314c2.64-3.108 1.93-6.13 2.29-11.025 2.01-1.94 1.75-1.26 5.62-1.244 5.22-4.044 2.99.694 9 1.043l2.06-3.648c9.04 2.377 34.2 1.836 44.8 1.78.26 6.346.93 10.221 4.45 15.484 9.48 14.173 17.75 30.783 30.23 42.407-.59-17.066.76-40.477.92-58.519 9.61.106 20.32-.667 30.02-1.163"/><path fill="rgb(43,45,163)" d="M1085.58 755.489c2.18 4.243-.66 7.21-.84 13.125l1.04.314c2.64-3.108 1.93-6.13 2.29-11.025 2.01-1.94 1.75-1.26 5.62-1.244 5.22-4.044 2.99.694 9 1.043l2.06-3.648c1.36 29.764-.38 62.752.3 92.881.2 8.913 1.31 39.506.31 45.989-.36-2.596-.78-4.994-.79-7.621-1.47 1.742-1.44 3.083-1.82 5.335-4.49 3.639-8.41-.182-13.37-1.284.05.011-5.04 3.46-5.61 3.689-.57-4.314-.53-8.744-.54-13.098-.13-38.327-1.32-76.794.08-115.093.12-3.296.75-6.416 2.27-9.363m54.11 80.712c2.97-3.493 1.66-5.182 4.66-7.236 2.58 2.841 3.89 4.306 7.2 6.231 5.88 8.407 13.56 20.572 18.68 29.535-6.55-2.097-5.34-7.478-12.28-11.275l-1.24.321c-1.58 17.821-16.71 4.953-16.3 23.193l.09-.786c.82 4.018 1.5 3.809.12 6.753l-3.43 1.236c1.22-12.093.38-37.716 2.5-47.972"/><path fill="rgb(77,83,130)" d="M1141.82 815.068c2.34 6.575 6.41 13.927 9.73 20.128-3.31-1.925-4.62-3.39-7.2-6.231-3 2.054-1.69 3.743-4.66 7.236.06-6.832 1.25-14.303 2.13-21.133"/><path fill="rgb(254,254,254)" d="M1378.79 828.328c-17.27-35.876-7.71-68.051 35.49-73.969 18.29-2.506 40.86 3.871 55.53 14.844 6.06 4.541 3.56 8.926 4.14 15.509l.12 1.326c1.61 3.596.36 7.67-2.47 10.398l-1.12-1.054c-2.87 1.471-13.32 8.139-14.03 8.273-1.19 1.695-.96 1.722-2.82 2.67 2.05.916 2.79.752 3.37 2.257-7 .924-2.71-3.734-9.33-.888l.42 1.003c1.99.789 20.31 6.576 20.46 6.7 9.86 8.639 22.61 25.037 19.57 39.011-.45.469-1.72 1.833-2.19 2.156-.94.996-.64.557-1.27 1.646a91 91 0 0 1-7.34 10.984c-11.54 14.844-22.75 21.655-41.79 23.997-17.11 2.104-40.37.295-54.51-10.774-10.45-8.179-9.55-16.342-10.79-28.508l.24-4.285c8.05-.831 16.08-1.721 24.11-2.669 3.48-.752 5.82-.799 8.14-3.361.93-3.342.64-3.646-.47-7.109-7.13-1.286-16.88-5.211-23.46-8.157"/><path fill="rgb(93,93,200)" d="M1402.25 836.485c7.54 2.375 42.47 11.156 38.86 21.601-6.84 6.357-24.44 7.332-32.01 2.199-5.38-7.812 5.36-13.15-14.52-13.33 3.48-.752 5.82-.799 8.14-3.361.93-3.342.64-3.646-.47-7.109"/><path fill="rgb(77,83,130)" d="M1433.97 805.57c-7.59-3.022-17.76-6.024-22.85-12.096-.85-3.621-1.14-2 .7-5.054 7.77-5.113 19.47-3.224 28.18-1.988-.29 4.603-.52 9.208-.7 13.816-1.87 1.73-3.79 3.312-5.33 5.322"/><path fill="rgb(43,45,163)" d="M1474.07 786.038c1.61 3.596.36 7.67-2.47 10.398l-1.12-1.054c-2.87 1.471-13.32 8.139-14.03 8.273-1.19 1.695-.96 1.722-2.82 2.67 2.05.916 2.79.752 3.37 2.257-7 .924-2.71-3.734-9.33-.888l.42 1.003c1.99.789 20.31 6.576 20.46 6.7 9.86 8.639 22.61 25.037 19.57 39.011-.45.469-1.72 1.833-2.19 2.156 2.04-38.055-25.5-40.267-51.96-50.994 1.54-2.01 3.46-3.592 5.33-5.322 12.95 3.517 28.86-1.64 34.77-14.21"/><path fill="rgb(254,254,254)" d="M1039.64 753.535c15.5 2.06 30.32 1.843 45.94 1.954-1.52 2.947-2.15 6.067-2.27 9.363-1.4 38.299-.21 76.766-.08 115.093.01 4.354-.03 8.784.54 13.098-9.13-.856-41.46.456-44.43-1.825-3.05 3.93-12.56 3.157-17.01 1.991 1.64-.291 1.15-.24 2.66-1.213.6-5.276.06-23.998.15-30.82l-32.563-1.306c-2.254-.382-4.562-.667-6.711-1.41l.427-.972c7.25-.637 29.887 1.913 38.137 1.665 1.25-.037 2.91-2.739 4.01-4.081l.94 1.233c-.03 2.97-.67 3.779-2.18 6.327 2.26 6.113.74 21.271 1.91 29.508l2.71-.401c5.86-5.94.73-15.255 2.98-20.541 2.7.956-.8 13.592 2.71 18.613l-.1-71.45c-.03-23.152-.8-41.938 2.23-64.826"/><path fill="rgb(33,10,146)" d="M992.577 859.87c-2.254-.382-4.562-.667-6.711-1.41l.427-.972c7.25-.637 29.887 1.913 38.137 1.665 1.25-.037 2.91-2.739 4.01-4.081l.94 1.233c-.03 2.97-.67 3.779-2.18 6.327 2.26 6.113.74 21.271 1.91 29.508l2.71-.401c5.86-5.94.73-15.255 2.98-20.541 2.7.956-.8 13.592 2.71 18.613l-.1-71.45c-.03-23.152-.8-41.938 2.23-64.826.83 7.047.05 19.749-.12 27.344-.27 12.9-.38 25.803-.36 38.706-.07 14.713-.04 29.426.12 44.138.11 7.245.85 21.033.06 27.495-3.05 3.93-12.56 3.157-17.01 1.991 1.64-.291 1.15-.24 2.66-1.213.6-5.276.06-23.998.15-30.82z"/><path fill="rgb(153,154,247)" d="M1370.23 853.909c-5.23 1.591-5.43 5.056-8.26 10.222l-1.7.039c-2.57-2.217-2.59-2.334-3.53-5.693.81-8.777 6.54-8.279 13.73-8.853z"/></svg>